:SAMPLES-PER-SECOND 30
:FULLY-SPECIFIED
:DEGREES
67
root  -3.96429 40.8916 -0.313366 -11.7491 -84.2573 14.3031
RightUpLeg  4.06553 -2.29122 -2.62225
RightLeg  -2.53679 -25.0567 0.894283
RightFoot  -2.14783 -0.312774 3.76114
RightToes  -3.10096e-008 1.75238e-005 3.56266e-009
Spine  -6.04328 -2.3473 -6.33362
Spine1  10.9639 -2.97179 4.06689
HEad  -24.693 -0.155323 6.67727
LeftShoulder1  3.25151 -6.18485 -27.4874
LeftArm  -9.23472 -8.41888 -33.5201
LeftForeArm  136.149 -55.9217 -162.553
LeftHand  1.62621 -10.8767 -11.1082
RightShoulder  3.10736 5.74012 27.6448
RightArm  -8.11263 -31.4724 43.5257
RightForeArm  36.614 48.0116 9.75469
RightHand  -0.201658 7.12243 -2.22365
LeftUpLeg  1.51599 -0.162853 1.10276
LeftLeg  -3.25925 7.53252 -0.659763
LeftFoot  0.0754329 0.244317 -2.42794
LeftToes  4.7633e-008 1.48299e-008 1.30754e-009
68
root  -3.96733 40.8916 -0.314764 -12.1124 -84.276 14.6112
RightUpLeg  4.06394 -2.31933 -2.6499
RightLeg  -2.39473 -24.9886 0.829802
RightFoot  -2.19359 -0.306939 3.67081
RightToes  -3.10096e-008 1.75238e-005 3.56266e-009
Spine  -5.99758 -2.28446 -6.2732
Spine1  10.5339 -2.89918 4.09421
HEad  -23.9487 -0.765059 6.02156
LeftShoulder1  3.22295 -6.16834 -27.2401
LeftArm  -11.0209 -9.05505 -33.7242
LeftForeArm  134.711 -58.2348 -160.971
LeftHand  1.5686 -10.4655 -10.9878
RightShoulder  3.13589 5.81915 27.6659
RightArm  -7.97181 -32.0436 43.0471
RightForeArm  36.5976 48.7184 10.0334
RightHand  -0.183494 6.97558 -2.07363
LeftUpLeg  1.60848 -0.175975 1.07282
LeftLeg  -3.30634 7.56874 -0.66172
LeftFoot  0.0937906 0.244356 -2.41336
LeftToes  4.7633e-008 1.48299e-008 1.30754e-009
69
root  -3.97299 40.8916 -0.317188 -11.8827 -84.2192 14.3052
RightUpLeg  4.18129 -2.34371 -2.63798
RightLeg  -2.4329 -25.0247 0.868194
RightFoot  -2.2062 -0.306893 3.67065
RightToes  -3.10096e-008 1.75238e-005 3.56266e-009
Spine  -6.00902 -2.40979 -6.28397
Spine1  10.4693 -3.07281 4.25508
HEad  -24.1367 -0.292847 5.91922
LeftShoulder1  3.1411 -5.95268 -27.131
LeftArm  -12.3217 -9.40515 -33.6021
LeftForeArm  132.192 -59.569 -159.813
LeftHand  1.40183 -9.41598 -10.54
RightShoulder  3.06232 5.65862 27.4468
RightArm  -7.8436 -31.934 43.0272
RightForeArm  36.6654 48.9777 10.1334
RightHand  -0.17766 6.9913 -2.01718
LeftUpLeg  1.66265 -0.147335 1.09895
LeftLeg  -3.24208 7.47422 -0.643743
LeftFoot  0.0349696 0.250178 -2.49067
LeftToes  4.7633e-008 1.48299e-008 1.30754e-009
70
root  -3.98523 40.8915 -0.32132 -11.882 -84.0959 14.2304
RightUpLeg  4.31325 -2.38152 -2.66248
RightLeg  -2.45567 -25.0862 0.890582
RightFoot  -2.24589 -0.311118 3.737
RightToes  -3.10096e-008 1.75238e-005 3.56266e-009
Spine  -6.00292 -2.45164 -6.47736
Spine1  10.3494 -3.16935 4.53671
HEad  -23.5596 -0.602237 5.67697
LeftShoulder1  3.18412 -6.0574 -27.2211
LeftArm  -12.256 -9.44587 -33.0619
LeftForeArm  129.351 -60.5067 -158.858
LeftHand  1.38586 -8.70452 -10.9695
RightShoulder  3.0599 5.69605 27.2782
RightArm  -8.19466 -32.1444 43.1131
RightForeArm  36.7732 49.1606 10.1998
RightHand  -0.189429 7.19292 -2.08788
LeftUpLeg  1.74033 -0.14215 1.08501
LeftLeg  -3.22654 7.34093 -0.636448
LeftFoot  0.016673 0.246918 -2.42859
LeftToes  4.7633e-008 1.48299e-008 1.30754e-009
71
root  -3.99676 40.8913 -0.322821 -11.8886 -84.0305 14.242
RightUpLeg  4.36786 -2.38538 -2.67091
RightLeg  -2.52589 -25.151 0.917428
RightFoot  -2.26252 -0.311338 3.74139
RightToes  -3.10096e-008 1.75238e-005 3.56266e-009
Spine  -5.812 -2.37195 -6.50239
Spine1  9.7331 -3.084 4.60801
HEad  -23.2096 -0.626977 5.73328
LeftShoulder1  3.15522 -6.00625 -27.084
LeftArm  -9.65017 -9.6203 -32.6244
LeftForeArm  127.827 -60.6996 -158.601
LeftHand  1.34541 -9.61264 -9.94995
RightShoulder  3.06936 5.72639 27.2705
RightArm  -8.31335 -32.6521 42.9976
RightForeArm  36.5163 49.2337 10.2488
RightHand  -0.199491 7.36823 -2.17377
LeftUpLeg  1.76055 -0.148197 1.07047
LeftLeg  -3.25563 7.28444 -0.634363
LeftFoot  0.0141799 0.249338 -2.45663
LeftToes  4.7633e-008 1.48299e-008 1.30754e-009
72
root  -4.01637 40.891 -0.32295 -11.6105 -83.9487 14.0153
RightUpLeg  4.3798 -2.39242 -2.66449
RightLeg  -2.58646 -25.2435 0.959495
RightFoot  -2.25776 -0.308777 3.70274
RightToes  -3.10096e-008 1.75238e-005 3.56266e-009
Spine  -5.62693 -2.35082 -6.44934
Spine1  9.33445 -3.01676 4.45802
HEad  -23.1198 -0.158962 6.38012
LeftShoulder1  2.94908 -5.62272 -26.1992
LeftArm  -1.80267 -9.57368 -31.0373
LeftForeArm  128.871 -57.113 -161.171
LeftHand  1.57944 -10.918 -10.7358
RightShoulder  3.10647 5.75383 27.5845
RightArm  -8.14895 -32.9498 42.6491
RightForeArm  36.1022 49.2025 10.2661
RightHand  -0.18392 7.15745 -2.05659
LeftUpLeg  1.74242 -0.134793 1.09128
LeftLeg  -3.28406 7.17967 -0.652952
LeftFoot  0.0222546 0.249051 -2.44428
LeftToes  4.7633e-008 1.48299e-008 1.30754e-009
73
root  -4.03036 40.8905 -0.321621 -11.2021 -83.8873 13.8488
RightUpLeg  4.17452 -2.33976 -2.63304
RightLeg  -2.65483 -25.3635 0.984436
RightFoot  -2.21395 -0.312521 3.76202
RightToes  -3.10096e-008 1.75238e-005 3.56266e-009
Spine  -5.45532 -2.31319 -6.7457
Spine1  8.90499 -3.05854 4.90736
HEad  -23.7671 0.108163 6.42739
LeftShoulder1  3.02349 -5.94544 -25.8608
LeftArm  10.922 -9.72713 -26.4116
LeftForeArm  131.769 -49.3004 -165.726
LeftHand  2.14446 -12.6267 -13.2465
RightShoulder  3.07269 5.72301 27.3162
RightArm  -8.27122 -33.1195 42.8821
RightForeArm  36.0693 48.7363 10.0829
RightHand  -0.186364 7.30226 -2.06203
LeftUpLeg  1.49942 -0.180447 1.09138
LeftLeg  -3.30765 7.17109 -0.64778
LeftFoot  0.0358869 0.245029 -2.37544
LeftToes  4.7633e-008 1.48299e-008 1.30754e-009
74
root  -4.04775 40.8898 -0.314304 -10.6439 -83.851 13.448
RightUpLeg  4.05178 -2.29334 -2.589
RightLeg  -2.70233 -25.4559 1.003
RightFoot  -2.16725 -0.307179 3.68031
RightToes  -3.10096e-008 1.75238e-005 3.56266e-009
Spine  -5.60565 -2.39924 -7.06578
Spine1  9.05884 -3.2963 5.57818
HEad  -24.7602 0.446731 5.51935
LeftShoulder1  3.32402 -6.7598 -26.275
LeftArm  20.3667 -10.0275 -22.5855
LeftForeArm  142.317 -43.3312 -168.716
LeftHand  2.65754 -14.5652 -14.8388
RightShoulder  2.90595 5.41355 26.5837
RightArm  -8.61939 -32.4486 43.8621
RightForeArm  36.7676 47.62 9.59024
RightHand  -0.18907 7.36907 -2.07705
LeftUpLeg  1.36881 -0.21582 1.10571
LeftLeg  -3.34861 7.17411 -0.628365
LeftFoot  0.036324 0.248712 -2.42798
LeftToes  4.7633e-008 1.48299e-008 1.30754e-009
75
root  -4.06428 40.8885 -0.296621 -10.9145 -84.0134 13.6949
RightUpLeg  4.09659 -2.29132 -2.61826
RightLeg  -2.7053 -25.2761 0.991726
RightFoot  -2.20791 -0.314127 3.7893
RightToes  -3.10096e-008 1.75238e-005 3.56266e-009
Spine  -6.21219 -2.63855 -6.99768
Spine1  9.94745 -3.5633 5.55407
HEad  -25.0406 0.330121 4.72873
LeftShoulder1  3.56102 -7.35055 -26.7186
LeftArm  18.7871 -7.99644 -21.1356
LeftForeArm  142.993 -41.7773 -169.261
LeftHand  2.8293 -15.0149 -15.4395
RightShoulder  2.86917 5.35074 26.3898
RightArm  -9.23888 -31.7693 44.6332
RightForeArm  37.5653 47.317 9.42048
RightHand  -0.143396 7.21753 -1.67791
LeftUpLeg  1.43946 -0.214298 1.08206
LeftLeg  -3.33715 7.34209 -0.625275
LeftFoot  -0.0274388 0.24962 -2.43882
LeftToes  4.7633e-008 1.48299e-008 1.30754e-009
76
root  -4.05351 40.8845 -0.292193 -11.4476 -84.0131 14.021
RightUpLeg  4.21083 -2.30478 -2.64423
RightLeg  -2.49389 -25.2531 0.841298
RightFoot  -2.26926 -0.31847 3.85777
RightToes  -3.10096e-008 1.75238e-005 3.56266e-009
Spine  -5.90691 -2.80787 -6.77942
Spine1  9.75683 -3.71786 5.3603
HEad  -25.3386 0.369358 4.4204
LeftShoulder1  3.50519 -6.80789 -27.9281
LeftArm  9.90631 -6.38084 -21.6594
LeftForeArm  135.805 -45.2568 -167.587
LeftHand  2.18117 -13.3297 -12.9452
RightShoulder  2.85242 5.30629 26.3622
RightArm  -9.41645 -31.4904 44.9871
RightForeArm  37.8687 47.2674 9.383
RightHand  -0.164592 7.57059 -1.83842
LeftUpLeg  1.58408 -0.123295 1.08715
LeftLeg  -3.19815 7.24078 -0.688146
LeftFoot  -0.103987 0.245903 -2.37908
LeftToes  4.7633e-008 1.48299e-008 1.30754e-009
77
root  -4.05121 40.8825 -0.298235 -12.529 -84.0683 14.9043
RightUpLeg  4.39066 -2.33581 -2.70852
RightLeg  -2.42987 -25.1528 0.756319
RightFoot  -2.33 -0.32118 3.90074
RightToes  -3.10096e-008 1.75238e-005 3.56266e-009
Spine  -5.64225 -2.63551 -6.26731
Spine1  9.14485 -3.37526 4.65791
HEad  -24.9083 -0.234429 4.64957
LeftShoulder1  3.21302 -6.0431 -27.5823
LeftArm  0.896188 -5.81896 -24.6961
LeftForeArm  130.814 -52.0886 -164.287
LeftHand  1.63155 -11.1878 -10.9197
RightShoulder  2.9055 5.31887 26.9405
RightArm  -9.54265 -32.4859 44.6729
RightForeArm  37.537 48.3142 9.80383
RightHand  -0.188714 7.44442 -2.0667
LeftUpLeg  1.80405 -0.0880405 1.03287
LeftLeg  -3.18093 7.27066 -0.730407
LeftFoot  -0.111931 0.24668 -2.39054
LeftToes  4.7633e-008 1.48299e-008 1.30754e-009
78
root  -4.05329 40.8813 -0.302312 -13.0161 -84.0572 15.2853
RightUpLeg  4.44554 -2.39477 -2.75868
RightLeg  -2.27572 -25.0779 0.687358
RightFoot  -2.38594 -0.322966 3.92915
RightToes  -3.10096e-008 1.75238e-005 3.56266e-009
Spine  -6.32383 -2.41812 -6.24025
Spine1  9.91589 -3.17758 4.78789
HEad  -24.755 -0.828633 4.21054
LeftShoulder1  3.08235 -5.7766 -27.1296
LeftArm  -5.22727 -7.11241 -27.6101
LeftForeArm  126.097 -58.5649 -160.104
LeftHand  1.36008 -9.76583 -9.96597
RightShoulder  2.8883 5.28172 26.8821
RightArm  -9.64903 -32.8986 44.7493
RightForeArm  37.0437 48.8825 10.0698
RightHand  -0.204263 7.50408 -2.19851
LeftUpLeg  1.94605 -0.0869975 1.00459
LeftLeg  -3.22267 7.267 -0.753637
LeftFoot  -0.110736 0.245307 -2.36974
LeftToes  4.7633e-008 1.48299e-008 1.30754e-009
79
root  -4.05663 40.8806 -0.30539 -12.5017 -84.0308 14.8042
RightUpLeg  4.4411 -2.36112 -2.7036
RightLeg  -2.33261 -25.1431 0.727391
RightFoot  -2.38072 -0.316065 3.82248
RightToes  -3.10096e-008 1.75238e-005 3.56266e-009
Spine  -6.44752 -2.35025 -5.76932
Spine1  9.58121 -2.98615 4.25151
HEad  -23.8286 -1.45827 3.84178
LeftShoulder1  3.11484 -5.91744 -26.9707
LeftArm  -8.68526 -7.1924 -28.553
LeftForeArm  122.304 -62.4929 -156.599
LeftHand  1.44764 -9.9455 -10.4817
RightShoulder  2.87679 5.22328 26.9743
RightArm  -8.9529 -33.614 44.5889
RightForeArm  36.7932 49.4222 10.3127
RightHand  -0.162225 7.10012 -1.86342
LeftUpLeg  1.88986 -0.0955195 1.03259
LeftLeg  -3.18868 7.24711 -0.704251
LeftFoot  -0.116022 0.249259 -2.4329
LeftToes  4.7633e-008 1.48299e-008 1.30754e-009
80
root  -4.06066 40.8801 -0.314955 -12.1263 -83.9534 14.4055
RightUpLeg  4.46883 -2.33542 -2.6559
RightLeg  -2.30319 -25.2563 0.713748
RightFoot  -2.38428 -0.319341 3.87344
RightToes  -3.10096e-008 1.75238e-005 3.56266e-009
Spine  -6.78028 -2.47664 -6.05974
Spine1  10.0015 -3.18483 4.59223
HEad  -23.7989 -1.31992 3.87883
LeftShoulder1  3.10747 -5.85323 -27.1236
LeftArm  -10.6071 -7.31867 -28.7775
LeftForeArm  116.837 -64.1137 -154.483
LeftHand  1.38824 -9.20427 -10.5851
RightShoulder  2.90283 5.30936 26.9456
RightArm  -7.40286 -32.3674 44.1399
RightForeArm  36.4043 47.5896 9.60269
RightHand  -0.182027 6.98149 -2.05815
LeftUpLeg  1.89286 -0.0826965 1.0677
LeftLeg  -3.14899 7.14089 -0.677592
LeftFoot  -0.150731 0.251212 -2.46598
LeftToes  4.7633e-008 1.48299e-008 1.30754e-009
81
root  -4.05987 40.8797 -0.328524 -11.7514 -83.9509 14.06
RightUpLeg  4.45456 -2.28672 -2.58737
RightLeg  -2.34612 -25.3004 0.728906
RightFoot  -2.37249 -0.317162 3.83934
RightToes  -3.10096e-008 1.75238e-005 3.56266e-009
Spine  -7.22684 -2.41163 -6.11215
Spine1  10.5051 -3.11737 4.61521
HEad  -24.2992 -1.26291 3.84191
LeftShoulder1  3.10333 -5.78417 -27.3335
LeftArm  -11.1698 -8.39114 -28.7302
LeftForeArm  112.674 -65.3122 -152.752
LeftHand  1.53039 -9.39509 -11.5412
RightShoulder  2.94577 5.38534 27.1548
RightArm  -7.2789 -32.2571 43.9347
RightForeArm  37.2016 47.1955 9.40013
RightHand  -0.204679 7.35396 -2.22322
LeftUpLeg  1.8405 -0.0237404 1.1463
LeftLeg  -3.11476 7.05581 -0.69483
LeftFoot  -0.188875 0.252684 -2.49255
LeftToes  4.7633e-008 1.48299e-008 1.30754e-009
